<svg width="24" height="24" viewBox="0 0 24 24" fill="none" xmlns="http://www.w3.org/2000/svg">
<path d="M24 18.5203C24 21.5484 21.5484 24 18.5203 24H5.47969C2.45156 24 0 21.5484 0 18.5203V5.48438C0 2.45625 2.45625 0 5.48438 0H18.4359C21.5109 0 24 2.48906 24 5.56406V18.5203Z" fill="url(#paint0_radial)"/>
<path d="M15.3375 3.30945H8.6625C5.70469 3.30945 3.30469 5.70945 3.30469 8.66726V15.3376C3.30469 18.2954 5.7 20.6907 8.6625 20.6907H15.3328C18.2906 20.6907 20.6859 18.2954 20.6859 15.3376V8.66726C20.6906 5.70476 18.2953 3.30945 15.3375 3.30945ZM19.0219 14.6954C19.0219 17.086 17.0859 19.0219 14.6953 19.0219H9.30469C6.91406 19.0219 4.97812 17.086 4.97812 14.6954V9.30476C4.97812 6.91414 6.91406 4.9782 9.30469 4.9782H14.6953C17.0859 4.9782 19.0219 6.91882 19.0219 9.30476V14.6954Z" fill="white"/>
<path d="M12.234 7.45312C9.70273 7.45312 7.6543 9.50156 7.6543 12.0328C7.6543 14.5594 9.70273 16.6125 12.234 16.6125C14.7605 16.6125 16.8137 14.5641 16.8137 12.0328C16.809 9.50156 14.7605 7.45312 12.234 7.45312ZM12.234 14.7844C10.7105 14.7844 9.47773 13.5516 9.47773 12.0281C9.47773 10.5047 10.7105 9.27187 12.234 9.27187C13.7527 9.27187 14.9902 10.5047 14.9902 12.0281C14.9855 13.5516 13.7527 14.7844 12.234 14.7844Z" fill="white"/>
<path d="M17.659 7.38289C17.659 8.02507 17.1387 8.54539 16.4965 8.54539C15.8543 8.54539 15.334 8.02507 15.334 7.38289C15.334 6.7407 15.8543 6.2157 16.4965 6.2157C17.1387 6.2157 17.659 6.73601 17.659 7.38289Z" fill="white"/>
<defs>
<radialGradient id="paint0_radial" cx="0" cy="0" r="1" gradientUnits="userSpaceOnUse" gradientTransform="translate(7.02977 25.8581) scale(31.8036 31.8027)">
<stop offset="0.0969388" stop-color="#FFD87A"/>
<stop offset="0.1426" stop-color="#FCCE78"/>
<stop offset="0.2263" stop-color="#F5B471"/>
<stop offset="0.3378" stop-color="#EB8D65"/>
<stop offset="0.449" stop-color="#E36058"/>
<stop offset="0.6786" stop-color="#CD3694"/>
<stop offset="1" stop-color="#6668B0"/>
</radialGradient>
</defs>
</svg>
