<svg width="24" height="24" viewBox="0 0 24 24" fill="none" xmlns="http://www.w3.org/2000/svg">
<path d="M19.8 0H4.2C1.8804 0 0 1.8804 0 4.2V19.8C0 22.1196 1.8804 24 4.2 24H19.8C22.1196 24 24 22.1196 24 19.8V4.2C24 1.8804 22.1196 0 19.8 0Z" fill="#4489C8"/>
<path d="M3.60843 7.41376H6.48843C6.54864 7.41366 6.60745 7.43191 6.65703 7.46608C6.7066 7.50024 6.74459 7.54871 6.76593 7.60501C7.08468 8.42626 8.40843 11.64 9.61968 11.9025C10.5197 11.9025 10.2009 7.62751 9.05718 7.62751C8.75718 7.62751 9.58968 7.09501 9.64593 7.07251C10.7088 6.78117 11.8305 6.78117 12.8934 7.07251C13.4672 7.31251 13.5647 7.98376 13.5797 8.55376C13.5947 9.12376 12.9422 11.5538 13.8009 11.8163C14.9259 12.1613 16.3734 8.63251 16.7109 7.76626C16.7329 7.71066 16.7711 7.66299 16.8206 7.62953C16.8702 7.59607 16.9287 7.57837 16.9884 7.57876H20.1947C20.2442 7.5786 20.293 7.59072 20.3368 7.61403C20.3805 7.63734 20.4178 7.67112 20.4452 7.71235C20.4727 7.75357 20.4896 7.80096 20.4943 7.85029C20.499 7.89961 20.4914 7.94933 20.4722 7.99501C19.8117 9.50166 19.0199 10.9472 18.1059 12.315C18.0282 12.4279 17.9918 12.5641 18.0027 12.7007C18.0136 12.8373 18.0713 12.9659 18.1659 13.065C19.1259 14.0925 21.7509 17.0025 20.2509 17.0025H17.0147C16.931 17.0027 16.8483 16.9851 16.772 16.9508C16.6957 16.9166 16.6276 16.8664 16.5722 16.8038C16.0697 16.2488 14.6072 14.7038 13.9472 14.8275C13.3997 14.9288 13.3472 15.8588 13.3734 16.4663C13.3817 16.623 13.3282 16.7767 13.2245 16.8945C13.1207 17.0123 12.975 17.0847 12.8184 17.0963C12.2447 17.13 11.4609 17.145 11.3897 17.1413C9.10218 16.995 7.74843 15.4688 6.45468 13.7663C5.09949 11.9613 4.04233 9.9508 3.32343 7.81126C3.30874 7.76599 3.30489 7.71789 3.31219 7.67086C3.3195 7.62383 3.33775 7.57917 3.36549 7.54049C3.39322 7.50181 3.42966 7.47019 3.47186 7.44817C3.51406 7.42616 3.56084 7.41437 3.60843 7.41376V7.41376Z" fill="white"/>
</svg>
