<svg width="20" height="20" fill="none" xmlns="http://www.w3.org/2000/svg"><path d="M18.924 5.138c.129-.44 0-.763-.618-.763h-2.045c-.52 0-.76.278-.889.587 0 0-1.041 2.57-2.514 4.236-.475.482-.694.637-.955.637-.128 0-.326-.155-.326-.594V5.138c0-.527-.146-.763-.576-.763H7.785c-.326 0-.52.246-.52.475 0 .499.736.615.812 2.021v3.052c0 .668-.118.79-.378.79-.695 0-2.382-2.58-3.382-5.533-.202-.573-.4-.805-.924-.805H1.348c-.583 0-.702.278-.702.587 0 .549.695 3.273 3.233 6.873 1.691 2.458 4.073 3.79 6.24 3.79 1.302 0 1.462-.295 1.462-.805 0-2.348-.118-2.57.534-2.57.302 0 .823.155 2.038 1.34 1.39 1.406 1.618 2.035 2.396 2.035h2.045c.584 0 .879-.295.709-.879-.39-1.227-3.018-3.751-3.136-3.92-.302-.394-.215-.57 0-.92.004-.004 2.5-3.562 2.757-4.768z" fill="#fff"/></svg>